# xmcd
#
# Track frame offsets: 
#        151
#        12490
#        34755
#        46110
#        61913
#        77492
#        90123
#        109448
#        123399
#        138635
#
# Disc length: 2139 seconds
#
# Revision: 0
# Processed by: cddbd v1.5.1PL0 Copyright (c) Steve Scherf et al.
# Submitted via: ExactAudioCopy v0.95a4
#
DISCID=7908590a
DTITLE=Various Artist - Blues-Music from the Documentary Film by Sam Charters
DYEAR=1963
DGENRE=Blues
TTITLE0=J.D. Short - Introduction - Memphis Willie B. - Alone In The E
TTITLE0=vening Blues
TTITLE1=J.D. Short - Slidin' Delta
TTITLE2=Pink Anderson and Son - Old Cotton Fields of Home
TTITLE3=Furry Lewis - John Henry
TTITLE4=Baby Tate - Bad Blues
TTITLE5=Memphis Willie B. and Gus Cannon - Sitting Here Thinking
TTITLE6=Sleepy John Estes - Lonesome Ground
TTITLE7=Baby Tate - If I Could Holler Like A Mountain Jack
TTITLE8=Baby Tate - When I First Started Hoboing
TTITLE9=Pink Anderson - Weeping Willow Blues
EXTD=
EXTT0=
EXTT1=
EXTT2=
EXTT3=
EXTT4=
EXTT5=
EXTT6=
EXTT7=
EXTT8=
EXTT9=
PLAYORDER=
